/* XPM */
static char *_2a2072c9b4f4c45e6b6fb4dd92cc283j47G7CRvd38JFLbX[] = {
/* columns rows colors chars-per-pixel */
"64 64 2 1 ",
"  c None",
". c #57AC5A",
/* pixels */
"                                                                ",
"                                                                ",
"                                                                ",
"                            ..........                          ",
"                            ..............                      ",
"                     ..     ................                    ",
"                   ....     ..................                  ",
"                 .......    ....................                ",
"               .........    ......................              ",
"              ...........            ..............             ",
"             ...........                 .........              ",
"            ..........                     .......              ",
"           .........                         ....               ",
"          .........                           ..                ",
"         .........        ........                    ..        ",
"        ........        ............                 ....       ",
"        .......        ..............              ......       ",
"       ........       ..............               .......      ",
"       .......       ..............                .......      ",
"      .......       .......      .       ..         .......     ",
"      ......       ......              .....         ......     ",
"      ......       .....             ........        .......    ",
"       ....       ......           ..........         ......    ",
"         ..       .....         ............          .......   ",
"                  .....       ..............          .......   ",
"                  .....     .......... ....            ......   ",
"                  .....   ..........  .....            ......   ",
"   .....          ...............     ....     ..      .......  ",
"   ......         .............      .....    ...       ......  ",
"   ......         ...........        ....    .....      ......  ",
"   ......        ..........         .....    .....      ......  ",
"   ......      ...........          ....     .....      ......  ",
"   ......    ..............        .....     .....      ......  ",
"   ......  .................       .....      .....     ......  ",
"   ......   .......  ........     .....       .....     ......  ",
"   ......    ....     ........    .....      .....      ......  ",
"   ......     .        ........   ....       .....              ",
"   .......              ........ .....       .....              ",
"    ......               ............       ......              ",
"    ......                ...........      ......               ",
"    .......                .........      .......      .        ",
"    .......                 ....................      ....      ",
"     ......                  ..................       ......    ",
"     .......                  ................       .......    ",
"      ......                  ...............        ......     ",
"      .......                .............          .......     ",
"       .......               .....                 .......      ",
"       ......               .....                 ........      ",
"        ....                .....                 .......       ",
"        ..                 .....                 ........       ",
"                .           ....               .........        ",
"               ....          ..               .........         ",
"               .....          .              .........          ",
"              ........                     ..........           ",
"             ............                ...........            ",
"              ..............              .........             ",
"               .......................    ........              ",
"                 .....................     .....                ",
"                   ...................     ...                  ",
"                     .................                          ",
"                       ...............                          ",
"                           ...........                          ",
"                                                                ",
"                                                                "
};
