/* XPM */
static char *c8d72cc25a734999c82fe4830bcf0851yDxb8EDK6DyK1cux[] = {
/* columns rows colors chars-per-pixel */
"16 16 2 1 ",
"  c None",
". c #57AC5A",
/* pixels */
"                ",
"        ...     ",
"    ..  .....   ",
"   ..  .    .   ",
"  ..  ....    . ",
"  .  ..       . ",
"    ..   ...  ..",
" ..  ........ ..",
" .. ...   . ....",
" .. . .. .  .. .",
" ..    ... ..   ",
"  .     ....  . ",
"  .     ...  .. ",
"    .   .   ..  ",
"    .....  ..   ",
"      ....      "
};
