/* XPM */
static char *_3b5fd2ca7af4a27d81fb55a76bc7093EzpoYBaxFcxSdsZu[] = {
/* columns rows colors chars-per-pixel */
"32 32 2 1 ",
"  c None",
". c #57AC5A",
/* pixels */
"                                ",
"                                ",
"               .....            ",
"          ..   ........         ",
"        .....  ..........       ",
"       ......       ......      ",
"      .....           ....      ",
"     ....     ..        .       ",
"    ....    .......         .   ",
"    ...    .......        ...   ",
"    ...   ...        .    ....  ",
"     .    ..       ....    ...  ",
"         ...     ......    ...  ",
"         ...  ..... ..      ... ",
"  ...     .......   .. ..   ... ",
"  ...     .....    ..  ..   ... ",
"  ...   ......     ..  ...  ... ",
"  ...  ........   ..   ...  ... ",
"  ...  ..   ....  ..   ...  ... ",
"  ...        ......   ...    .  ",
"   ...        .....  ...        ",
"   ...         .........   .    ",
"   ....         .......   ...   ",
"    ...        ...        ...   ",
"    ..         ..        ....   ",
"        .      ..       ....    ",
"       ....    .      .....     ",
"       ......       ......      ",
"        ..........  .....       ",
"          ........  ...         ",
"             .....              ",
"                                "
};
