/* XPM */
static char *d1d8a4df0b9f482c8dcdf33ee8eb8ccct88WEWJJUEy3dHgv[] = {
/* columns rows colors chars-per-pixel */
"128 128 2 1 ",
"  c None",
". c #57AC5A",
/* pixels */
"                                                                                                                                ",
"                                                                                                                                ",
"                                                                                                                                ",
"                                                                                                                                ",
"                                                                                                                                ",
"                                                                                                                                ",
"                                                          ..............                                                        ",
"                                                         .....................                                                  ",
"                                                         ........................                                               ",
"                                                         ...........................                                            ",
"                                          ....           ..............................                                         ",
"                                        .......          ................................                                       ",
"                                      .........          ..................................                                     ",
"                                    ...........          ....................................                                   ",
"                                  ..............         ......................................                                 ",
"                                 ...............         .......................................                                ",
"                               ..................        .........................................                              ",
"                              ...................        ..........................................                             ",
"                            ......................                    ...............................                           ",
"                           .......................                         ...........................                          ",
"                          .......................                              .......................                          ",
"                         ......................                                   ....................                          ",
"                        .....................                                       .................                           ",
"                       ....................                                           ..............                            ",
"                      ...................                                               ............                            ",
"                     ...................                                                 ..........                             ",
"                    ..................                                                     .......                              ",
"                   ..................                     .  .                              .....                               ",
"                  .................                  ..............                           ...                               ",
"                  ................                ...................                          .              .                 ",
"                 ................               ........................                                    ....                ",
"                ................               ..........................                                  ......               ",
"                ...............              .............................                               ........               ",
"               ...............              .............................                              ...........              ",
"              ...............              .............................                              .............             ",
"              ..............              .............................                              ..............             ",
"             ...............             .............................                                ..............            ",
"             ..............             ..................    .......                                 ..............            ",
"            ..............              ..............            ..                ..                 ..............           ",
"            ..............             .............                              .....                 .............           ",
"           ..............             .............                             ........                ..............          ",
"           .............              ............                            ...........                .............          ",
"             ...........             ............                          ...............               ..............         ",
"               ........              ...........                         ..................               .............         ",
"                .......              ..........                        ...................                .............         ",
"                  ....              ...........                      .....................                 .............        ",
"                    .               ..........                     ......................                  .............        ",
"                                    ..........                   ........................                   ............        ",
"                                    ..........                 ..........................                   .............       ",
"                                    ..........              ............................                    .............       ",
"                                    ..........            ...................  .........                     ............       ",
"                                    ..........          ...................   .........                      .............      ",
"                                    ..........        ...................     .........                      .............      ",
"       ......                       ..........      ...................      .........                       .............      ",
"       ............                 ..........    ...................        .........        ..              ............      ",
"       ............                 ........... ...................         .........        ....             ............      ",
"       ............                 .............................           .........       .....             ............      ",
"      .............                 ...........................             ........       .......            .............     ",
"      .............                  ........................              .........      ........            .............     ",
"      ............                   ......................                .........     ..........            ............     ",
"      ............                   ....................                 .........      ..........            ............     ",
"      ............                 ....................                   .........      ..........            ............     ",
"      ............               ....................                    .........       ...........           ............     ",
"      ............            ......................                     .........        ..........           ............     ",
"      ............          .........................                   .........         ..........           ............     ",
"      ............        ............................                  .........         ..........           ............     ",
"      ............      ...............................                .........          ...........          ............     ",
"      ............     .................................               .........          ...........          ............     ",
"      ............      .................  ..............             .........           ...........          ............     ",
"      ............       ..............     ..............            .........           ...........          ............     ",
"      .............       ...........        ..............          ..........           ..........           ............     ",
"      .............        ........           ..............         .........            ..........          .............     ",
"       ............         .....              ..............       ..........            ..........          ............      ",
"       ............          ..                 ..............      .........            ..........           ............      ",
"       ............                              ..............    ..........            ..........                  .....      ",
"       ............                               ..............   .........            ...........                             ",
"       .............                               .............. ..........           ...........                              ",
"       .............                                .......................            ...........                              ",
"        ............                                 ......................           ............                              ",
"        .............                                 ....................          .............                               ",
"        .............                                  ...................         .............                                ",
"         ............                                   ..................     .................            .                   ",
"         .............                                   ......................................            ....                 ",
"         .............                                    ....................................             ......               ",
"          .............                                    ..................................             .........             ",
"          .............                                     ................................              ...........           ",
"          ..............                                     ..............................              .............          ",
"           .............                                     .............................               .............          ",
"           ..............                                    ...........................                ..............          ",
"            .............                                   ..........................                 ..............           ",
"            ..............                                  ........................                   ..............           ",
"             ..............                                ..........   .........                     ..............            ",
"             ..............                                .........                                 ...............            ",
"              .............                               ..........                                 ..............             ",
"              ...........                                 ..........                                ...............             ",
"               .........                                 ..........                                ...............              ",
"                ......                                   ..........                               ...............               ",
"                ....                                    ..........                               ................               ",
"                 ..                                     ..........                              ................                ",
"                                ..                     ..........                              ................                 ",
"                               ....                     .........                             .................                 ",
"                              .......                    .......                            ..................                  ",
"                              ........                    ......                           ..................                   ",
"                             ...........                   ....                          ...................                    ",
"                            .............                   ...                         ...................                     ",
"                           ................                  ..                       ....................                      ",
"                           ..................                                       .....................                       ",
"                          .....................                                   ......................                        ",
"                          ........................                              .......................                         ",
"                           ..........................                           ......................                          ",
"                            ...............................                     .....................                           ",
"                              ..........................................         ..................                             ",
"                               ..........................................        .................                              ",
"                                 ........................................         ..............                                ",
"                                  .......................................         .............                                 ",
"                                    .....................................          ..........                                   ",
"                                      ...................................          ........                                     ",
"                                        .................................           .....                                       ",
"                                          ...............................           ...                                         ",
"                                             ............................                                                       ",
"                                                .........................                                                       ",
"                                                   ......................                                                       ",
"                                                         ...............                                                        ",
"                                                                                                                                ",
"                                                                                                                                ",
"                                                                                                                                ",
"                                                                                                                                ",
"                                                                                                                                "
};
